Coordinates
version=1
nRows=27
nColumns=38
inDegrees=no

Units are S.I. units (second, meters, Newtons, ...)
If the header above contains a line with 'inDegrees', this indicates whether rotational values are in degrees (yes) or radians (no).

endheader
time	pelvis_tilt	pelvis_list	pelvis_rotation	pelvis_tx	pelvis_ty	pelvis_tz	hip_flexion_r	hip_adduction_r	hip_rotation_r	knee_angle_r	ankle_angle_r	subtalar_angle_r	mtp_angle_r	hip_flexion_l	hip_adduction_l	hip_rotation_l	knee_angle_l	ankle_angle_l	subtalar_angle_l	mtp_angle_l	lumbar_extension	lumbar_bending	lumbar_rotation	arm_flex_r	arm_add_r	arm_rot_r	elbow_flex_r	pro_sup_r	wrist_flex_r	wrist_dev_r	arm_flex_l	arm_add_l	arm_rot_l	elbow_flex_l	pro_sup_l	wrist_flex_l	wrist_dev_l
2.92	-0.0474414	1.49505	-0.995947	0.851101	0.795556	0.938016	0.410302	-0.166529	-0.282586	0.895357	0.200368	0	0	-0.137876	-0.0174209	-0.0522246	0.0873089	0.14884	0	0	-0.411925	0.0829056	0.224293	0.953616	-0.22733	0.292632	0.544184	1.43082	0	0	-0.144057	-0.400432	0.200905	0.845079	0.324215	0	0
2.93	-0.0579939	1.49645	-0.984026	0.851779	0.790504	0.937631	0.41518	-0.169094	-0.289669	0.859372	0.197393	0	0	-0.147953	-0.0194135	-0.0462638	0.0747815	0.146436	0	0	-0.410731	0.0831773	0.223713	0.95046	-0.232609	0.278207	0.548187	1.44676	0	0	-0.146141	-0.402435	0.198653	0.842449	0.324221	0	0
2.94	0.00104496	1.49685	-1.03764	0.853717	0.785288	0.93729	0.409049	-0.188629	-0.314474	0.817423	0.160122	0	0	-0.165271	-0.0164827	-0.0320208	0.0563202	0.140713	0	0	-0.411062	0.0822875	0.217605	0.946168	-0.238303	0.269159	0.55275	1.45154	0	0	-0.150343	-0.404247	0.194841	0.83948	0.319784	0	0
2.95	-0.00182437	1.49867	-1.03335	0.854424	0.780056	0.936753	0.411783	-0.191498	-0.324688	0.779628	0.156161	0	0	-0.176156	-0.0182601	-0.0246052	0.0426376	0.137677	0	0	-0.409415	0.0821383	0.216504	0.942554	-0.243332	0.258925	0.557565	1.45495	0	0	-0.152809	-0.405521	0.189578	0.834976	0.317495	0	0
2.96	-0.00511757	1.50094	-1.02861	0.855125	0.774751	0.936096	0.414013	-0.194238	-0.335282	0.741694	0.150639	0	0	-0.186146	-0.0199189	-0.0174335	0.029998	0.135141	0	0	-0.407122	0.0818283	0.215075	0.938839	-0.248418	0.249475	0.562278	1.45902	0	0	-0.155788	-0.406332	0.183855	0.83034	0.318922	0	0
2.97	-0.00787043	1.50339	-1.0245	0.855808	0.769375	0.935354	0.415642	-0.196783	-0.346197	0.704032	0.143023	0	0	-0.195518	-0.0214832	-0.0107666	0.0184168	0.132945	0	0	-0.404439	0.0813179	0.213587	0.934868	-0.253442	0.239454	0.567072	1.46544	0	0	-0.159123	-0.407372	0.177519	0.82615	0.319345	0	0
2.98	-0.010561	1.50593	-1.02081	0.856433	0.763949	0.93455	0.417401	-0.198676	-0.356071	0.667418	0.134208	0	0	-0.204466	-0.0230216	-0.00450201	0.00751286	0.130461	0	0	-0.401549	0.0805987	0.21263	0.930174	-0.258476	0.227022	0.573076	1.47533	0	0	-0.162181	-0.408374	0.171422	0.821668	0.318332	0	0
2.99	-0.0181313	1.50862	-1.01175	0.857054	0.758434	0.93369	0.419345	-0.200156	-0.366342	0.633549	0.117827	0	0	-0.212026	-0.0250387	0.000546379	1.12029e-08	0.129046	0	0	-0.398306	0.0802884	0.211136	0.924906	-0.263463	0.216296	0.58042	1.47899	0	0	-0.165333	-0.409046	0.164595	0.816476	0.3176	0	0
3	-0.0219577	1.51174	-1.00623	0.857678	0.752822	0.932753	0.421234	-0.202056	-0.378025	0.603479	0.0923524	0	0	-0.21723	-0.0267452	0.00144326	0	0.130483	0	0	-0.394678	0.0797682	0.208768	0.919811	-0.267942	0.208335	0.587434	1.47887	0	0	-0.169347	-0.409813	0.158471	0.812152	0.317821	0	0
3.01	-0.0124222	1.51513	-1.01387	0.858414	0.747055	0.931743	0.423803	-0.206851	-0.391325	0.581656	0.0573143	0	0	-0.222577	-0.0275351	0.00284892	0	0.132115	0	0	-0.390666	0.0786879	0.205642	0.913283	-0.271774	0.19794	0.596095	1.4789	0	0	-0.173757	-0.409495	0.149897	0.806402	0.318998	0	0
3.02	0.00529192	1.5187	-1.02998	0.859183	0.74115	0.930675	0.42745	-0.212784	-0.403021	0.567967	0.0216775	0	0	-0.227745	-0.027819	0.00399672	0	0.134217	0	0	-0.386365	0.0772029	0.202576	0.90555	-0.275802	0.186553	0.606361	1.48016	0	0	-0.178527	-0.408348	0.139769	0.800424	0.321237	0	0
3.03	-0.138034	1.52463	-0.892274	0.858017	0.735416	0.92941	0.438308	-0.18897	-0.356966	0.525362	0.0160318	0	0	-0.223703	-0.0339085	-0.00146135	0	0.13843	0	0	-0.378899	0.0770995	0.208529	0.898195	-0.279633	0.170283	0.618834	1.48716	0	0	-0.179386	-0.405646	0.124712	0.79045	0.324603	0	0
3.04	-0.437672	1.52715	-0.602181	0.856392	0.730721	0.928661	0.41678	-0.14291	-0.142612	0.403897	0.0428305	0	0	-0.214155	-0.0440249	-0.0102471	0	0.142684	0	0	-0.372239	0.0824206	0.22037	0.893781	-0.285569	0.153267	0.630847	1.50776	0	0	-0.174132	-0.395236	0.102324	0.77053	0.331082	0	0
3.05	-0.45607	1.52456	-0.583212	0.856789	0.724447	0.928143	0.439047	-0.14168	-0.212303	0.464601	0.118997	0	0	-0.222184	-0.0504993	-0.0127246	0	0.146742	0	0	-0.372224	0.0858774	0.220382	0.885173	-0.290758	0.143302	0.642799	1.51015	0	0	-0.178547	-0.39332	0.0944074	0.76583	0.332807	0	0
3.06	-0.426569	1.52732	-0.609666	0.857961	0.718255	0.926901	0.444737	-0.150082	-0.222206	0.48443	0.136393	0	0	-0.228791	-0.0504291	-0.0104336	0	0.151476	0	0	-0.37118	0.0855083	0.22026	0.88283	-0.302718	0.114551	0.657391	1.5708	0	0	-0.180758	-0.391182	0.0869574	0.761102	0.335372	0	0
3.07	-0.453127	1.53069	-0.579246	0.858902	0.71164	0.925827	0.448439	-0.155031	-0.225497	0.496973	0.134733	0	0	-0.232702	-0.0523132	-0.00784432	0	0.155384	0	0	-0.363857	0.0848937	0.211555	0.861232	-0.297446	0.102984	0.672215	1.56431	0	0	-0.190782	-0.389344	0.0728728	0.757154	0.337525	0	0
3.08	-0.461302	1.53107	-0.568066	0.859723	0.705127	0.924902	0.449527	-0.156434	-0.226847	0.506987	0.128576	0	0	-0.238944	-0.056195	-0.00684303	0	0.159879	0	0	-0.36157	0.0867445	0.208524	0.849259	-0.302616	0.0919681	0.688751	1.56046	0	0	-0.196523	-0.386505	0.0614766	0.753001	0.339353	0	0
3.09	-0.477015	1.5304	-0.549771	0.860381	0.698543	0.924067	0.44942	-0.155544	-0.227479	0.516804	0.123584	0	0	-0.245076	-0.0613974	-0.00672259	0	0.164111	0	0	-0.359886	0.0895875	0.206161	0.83728	-0.307526	0.0807301	0.705864	1.55995	0	0	-0.202059	-0.383031	0.0510297	0.748861	0.341549	0	0
3.1	-0.494992	1.52924	-0.529684	0.860931	0.6919	0.923277	0.449527	-0.153856	-0.230116	0.530236	0.122205	0	0	-0.25096	-0.0672817	-0.00714923	0	0.168006	0	0	-0.357047	0.0913896	0.209221	0.819555	-0.315838	0.0591579	0.728067	1.5708	0	0	-0.220179	-0.415581	0.330772	0.755551	1.37164	0	0
3.11	-0.529883	1.52909	-0.4935	0.861347	0.685131	0.922455	0.451271	-0.152168	-0.233931	0.544764	0.122757	0	0	-0.254712	-0.0726487	-0.00836748	0.000205362	0.171816	0	0	-0.356611	0.095314	0.202979	0.81241	-0.31615	0.0541101	0.744448	1.5708	0	0	-0.214704	-0.372106	0.0328403	0.746452	0.46895	0	0
3.12	-0.556655	1.52877	-0.466085	0.861578	0.678373	0.921723	0.452385	-0.149534	-0.237301	0.55813	0.124097	0	0	-0.254992	-0.0779878	-0.0167351	0.0116705	0.179788	0	0	-0.353657	0.0962565	0.206733	0.795801	-0.324762	0.0389816	0.765589	1.5708	0	0	-0.232239	-0.405664	0.308913	0.747027	1.36866	0	0
3.13	-0.591461	1.52873	-0.431493	0.861592	0.671369	0.921051	0.452419	-0.144688	-0.238222	0.567003	0.125664	0	0	-0.255707	-0.0832451	-0.0224733	0.0214561	0.185225	0	0	-0.351994	0.0979088	0.20596	0.784543	-0.328142	0.0297555	0.782794	1.5708	0	0	-0.238713	-0.401332	0.298732	0.743548	1.37015	0	0
3.14	-0.654621	1.52914	-0.369303	0.861318	0.664189	0.920359	0.452959	-0.138138	-0.235818	0.573137	0.127197	0	0	-0.253054	-0.088914	-0.0321949	0.0357677	0.192926	0	0	-0.349311	0.0989005	0.205799	0.771793	-0.33028	0.0174287	0.802544	1.5708	0	0	-0.245451	-0.396995	0.290536	0.740879	1.37306	0	0
3.15	-0.751223	1.52993	-0.274773	0.860809	0.656807	0.919621	0.453716	-0.130694	-0.233578	0.575336	0.123098	0	0	-0.248186	-0.0947244	-0.0440528	0.0521464	0.200797	0	0	-0.345438	0.0992311	0.206544	0.75756	-0.331607	0.00343638	0.824325	1.5708	0	0	-0.252473	-0.392855	0.284458	0.739062	1.37871	0	0
3.16	-0.882414	1.53121	-0.146549	0.860146	0.649294	0.91883	0.454027	-0.12259	-0.230507	0.571982	0.113686	0	0	-0.241898	-0.0998795	-0.0560236	0.068801	0.207669	0	0	-0.340384	0.0986696	0.207842	0.741725	-0.332601	-0.0111726	0.848168	1.5708	0	0	-0.259584	-0.388014	0.273772	0.737039	1.38024	0	0
3.17	-0.965157	1.53198	-0.0678602	0.859497	0.641817	0.918148	0.449852	-0.114064	-0.228198	0.56373	0.100486	0	0	-0.238835	-0.104471	-0.0687285	0.0842297	0.213957	0	0	-0.339759	0.0987519	0.213759	0.739213	-0.339851	-0.0346979	0.866075	1.5708	0	0	-0.263016	-0.383061	0.269257	0.73515	1.38242	0	0
3.18	-1.20361	1.53403	0.16828	0.85867	0.633794	0.917334	0.447977	-0.106655	-0.225907	0.549908	0.0839655	0	0	-0.22919	-0.108418	-0.0794849	0.100513	0.218324	0	0	-0.328479	0.0949018	0.209196	0.708262	-0.332747	-0.0389874	0.894945	1.5708	0	0	-0.27446	-0.379186	0.261257	0.734246	1.38677	0	0
